<svg width="72" height="68" viewBox="0 0 72 68" fill="none" xmlns="http://www.w3.org/2000/svg">
<g clip-path="url(#clip0_432_518)">
<circle cx="36" cy="32.5" r="32" fill="#DEE5F8" fill-opacity="0.5"/>
<path d="M54.623 27.3021H54.6978C58.7554 27.3021 62.6469 28.7349 65.516 31.2852C68.3852 33.8356 69.9971 37.2946 69.9971 40.9014C69.9971 44.5082 68.3852 47.9672 65.516 50.5176C62.6469 53.068 58.7554 54.5008 54.6978 54.5008H18.9996C14.6319 54.5015 10.4316 53.0079 7.2696 50.3298C4.1076 47.6516 2.22661 43.9943 2.01673 40.1165C1.80684 36.2387 3.28417 32.4378 6.14231 29.5022C9.00046 26.5666 13.0201 24.7215 17.3676 24.3495M54.623 27.3021C54.6706 26.8044 54.6955 26.3008 54.6978 25.791C54.7052 21.5032 52.8482 17.3788 49.5148 14.2795C46.1814 11.1802 41.6296 9.34582 36.8103 9.15972C31.9911 8.97362 27.2774 10.4502 23.6542 13.2809C20.031 16.1115 17.7786 20.0773 17.3676 24.3495M54.623 27.3021C54.2808 30.6307 52.8175 33.7902 50.4242 36.3683L54.623 27.3021ZM17.3676 24.3495C17.9048 24.3032 18.4488 24.28 18.9996 24.28C22.8278 24.28 26.3602 25.4042 29.1991 27.3021" fill="white"/>
<path d="M54.623 27.3021H54.6978C58.7554 27.3021 62.6469 28.7349 65.516 31.2852C68.3852 33.8356 69.9971 37.2946 69.9971 40.9014C69.9971 44.5082 68.3852 47.9672 65.516 50.5176C62.6469 53.068 58.7554 54.5008 54.6978 54.5008H18.9996C14.6319 54.5015 10.4316 53.0079 7.26959 50.3297C4.1076 47.6516 2.22661 43.9943 2.01673 40.1165C1.80684 36.2387 3.28417 32.4378 6.14231 29.5022C9.00046 26.5666 13.0201 24.7215 17.3676 24.3495M54.623 27.3021C54.6706 26.8044 54.6956 26.3008 54.6978 25.791C54.7052 21.5032 52.8482 17.3788 49.5148 14.2795C46.1814 11.1802 41.6296 9.34582 36.8103 9.15972C31.9911 8.97362 27.2774 10.4502 23.6542 13.2809C20.031 16.1115 17.7786 20.0773 17.3676 24.3495M54.623 27.3021C54.2808 30.6307 52.8175 33.7902 50.4242 36.3683M17.3676 24.3495C17.9048 24.3032 18.4488 24.28 18.9996 24.28C22.8278 24.28 26.3602 25.4042 29.1991 27.3021" stroke="#DEE5F8" stroke-opacity="0.5" stroke-width="1.5" stroke-linecap="round" stroke-linejoin="round"/>
</g>
<path fill-rule="evenodd" clip-rule="evenodd" d="M47.6667 53.5C47.6667 47.0565 42.4435 41.8334 36 41.8334C29.5565 41.8334 24.3333 47.0565 24.3333 53.5C24.3333 59.9435 29.5565 65.1667 36 65.1667C42.4435 65.1667 47.6667 59.9435 47.6667 53.5ZM31.8817 52.9517C31.7178 52.7876 31.6258 52.5652 31.6258 52.3334C31.6258 52.1015 31.7178 51.8791 31.8817 51.715L35.3817 48.215C35.5457 48.0512 35.7681 47.9591 36 47.9591C36.2319 47.9591 36.4543 48.0512 36.6183 48.215L40.1183 51.715C40.2043 51.7951 40.2733 51.8917 40.3211 51.9991C40.3689 52.1064 40.3946 52.2223 40.3967 52.3398C40.3988 52.4573 40.3772 52.574 40.3332 52.6829C40.2891 52.7919 40.2236 52.8908 40.1406 52.9739C40.0575 53.057 39.9585 53.1225 39.8495 53.1665C39.7406 53.2105 39.6239 53.2321 39.5064 53.2301C39.3889 53.228 39.273 53.2023 39.1657 53.1545C39.0584 53.1066 38.9618 53.0377 38.8817 52.9517L36.875 50.945V58.1667C36.875 58.3988 36.7828 58.6213 36.6187 58.7854C36.4546 58.9495 36.2321 59.0417 36 59.0417C35.7679 59.0417 35.5454 58.9495 35.3813 58.7854C35.2172 58.6213 35.125 58.3988 35.125 58.1667V50.945L33.1183 52.9517C32.9543 53.1156 32.7319 53.2076 32.5 53.2076C32.2681 53.2076 32.0457 53.1156 31.8817 52.9517Z" fill="black"/>
<defs>
<clipPath id="clip0_432_518">
<rect width="72" height="64" fill="white" transform="translate(0 0.5)"/>
</clipPath>
</defs>
</svg>
