<svg width="145" height="31" viewBox="0 0 145 31" fill="none" xmlns="http://www.w3.org/2000/svg">
<mask id="mask0_1101_4530" style="mask-type:luminance" maskUnits="userSpaceOnUse" x="0" y="0" width="17" height="16">
<path d="M0 0H16.7649V15.4829H0V0Z" fill="white"/>
</mask>
<g mask="url(#mask0_1101_4530)">
<mask id="mask1_1101_4530" style="mask-type:luminance" maskUnits="userSpaceOnUse" x="-2" y="-2" width="21" height="19">
<path d="M-1.64258 11.7047L12.3202 -1.46753L18.3674 3.75115L4.40464 16.9233L-1.64258 11.7047Z" fill="white"/>
</mask>
<g mask="url(#mask1_1101_4530)">
<mask id="mask2_1101_4530" style="mask-type:luminance" maskUnits="userSpaceOnUse" x="0" y="0" width="17" height="16">
<path d="M1.2504 8.97683L9.40787 1.28055C10.1752 0.556872 11.2292 0.137681 12.3386 0.115436C13.4481 0.0931899 14.5221 0.46928 15.3241 1.16167C16.1254 1.85337 16.59 2.80507 16.6146 3.80612C16.6393 4.80717 16.2224 5.77555 15.4551 6.49923L7.29762 14.1955C6.53026 14.9192 5.47629 15.3384 4.36685 15.3606C3.25741 15.3829 2.18341 15.0061 1.38137 14.3144C0.580111 13.622 0.115533 12.671 0.0908784 11.6699C0.0662241 10.6689 0.483035 9.70051 1.2504 8.97683Z" fill="white"/>
</mask>
<g mask="url(#mask2_1101_4530)">
<path d="M-1.64258 11.7046L12.2978 -1.44604L18.3451 3.77264L4.40464 16.9233L-1.64258 11.7046Z" fill="black"/>
</g>
</g>
</g>
<mask id="mask3_1101_4530" style="mask-type:luminance" maskUnits="userSpaceOnUse" x="0" y="15" width="17" height="16">
<path d="M0.197266 15.3049H16.7649V30.6099H0.197266V15.3049Z" fill="white"/>
</mask>
<g mask="url(#mask3_1101_4530)">
<mask id="mask4_1101_4530" style="mask-type:luminance" maskUnits="userSpaceOnUse" x="-2" y="13" width="21" height="20">
<path d="M-1.53223 26.9046L12.4305 13.7324L18.4778 18.9511L4.51499 32.1233L-1.53223 26.9046Z" fill="white"/>
</mask>
<g mask="url(#mask4_1101_4530)">
<mask id="mask5_1101_4530" style="mask-type:luminance" maskUnits="userSpaceOnUse" x="0" y="15" width="17" height="16">
<path d="M1.36075 24.1768L9.51822 16.4805C10.2856 15.7568 11.3395 15.3376 12.449 15.3154C13.5584 15.2931 14.6324 15.6692 15.4345 16.3616C16.2357 17.0533 16.7003 18.005 16.725 19.0061C16.7496 20.0064 16.3328 20.9755 15.5654 21.6992L7.40797 29.3955C6.64061 30.1191 5.58664 30.5376 4.4772 30.5606C3.36776 30.5828 2.29376 30.206 1.49172 29.5143C0.690462 28.8219 0.225884 27.8709 0.20123 26.8699C0.176576 25.8688 0.593386 24.8998 1.36075 24.1768Z" fill="white"/>
</mask>
<g mask="url(#mask5_1101_4530)">
<path d="M-1.53223 26.9048L12.4082 13.7542L18.4554 18.9728L4.51499 32.1235L-1.53223 26.9048Z" fill="black"/>
</g>
</g>
</g>
<mask id="mask6_1101_4530" style="mask-type:luminance" maskUnits="userSpaceOnUse" x="16" y="0" width="18" height="16">
<path d="M16.5684 0H33.3332V15.4829H16.5684V0Z" fill="white"/>
</mask>
<g mask="url(#mask6_1101_4530)">
<mask id="mask7_1101_4530" style="mask-type:luminance" maskUnits="userSpaceOnUse" x="15" y="-2" width="21" height="19">
<path d="M15.0254 11.7672L28.9882 -1.40503L35.0354 3.81365L21.0726 16.9858L15.0254 11.7672Z" fill="white"/>
</mask>
<g mask="url(#mask7_1101_4530)">
<mask id="mask8_1101_4530" style="mask-type:luminance" maskUnits="userSpaceOnUse" x="16" y="0" width="18" height="16">
<path d="M17.9174 9.03933L26.0756 1.34305C26.8422 0.619372 27.897 0.200181 29.0064 0.177936C30.1158 0.15569 31.1891 0.53178 31.9911 1.22417C32.7931 1.91587 33.2577 2.86757 33.2824 3.86793C33.307 4.86898 32.8894 5.83805 32.1228 6.56173L23.9646 14.258C23.198 14.9817 22.1433 15.4002 21.0338 15.4224C19.9244 15.4454 18.8512 15.0686 18.0491 14.3769C17.2471 13.6845 16.7825 12.7335 16.7579 11.7324C16.7332 10.7314 17.1508 9.76232 17.9174 9.03933Z" fill="white"/>
</mask>
<g mask="url(#mask8_1101_4530)">
<path d="M15.0254 11.7673L28.9658 -1.3833L35.013 3.83538L21.0726 16.986L15.0254 11.7673Z" fill="#55679C"/>
</g>
</g>
</g>
<mask id="mask9_1101_4530" style="mask-type:luminance" maskUnits="userSpaceOnUse" x="16" y="14" width="18" height="17">
<path d="M16.7656 14.949H33.5305V30.4319H16.7656V14.949Z" fill="white"/>
</mask>
<g mask="url(#mask9_1101_4530)">
<mask id="mask10_1101_4530" style="mask-type:luminance" maskUnits="userSpaceOnUse" x="15" y="13" width="21" height="19">
<path d="M15.1309 26.6683L29.0936 13.4961L35.1409 18.7148L21.1781 31.887L15.1309 26.6683Z" fill="white"/>
</mask>
<g mask="url(#mask10_1101_4530)">
<mask id="mask11_1101_4530" style="mask-type:luminance" maskUnits="userSpaceOnUse" x="16" y="15" width="18" height="16">
<path d="M18.0221 23.9405L26.1803 16.2442C26.9477 15.5205 28.0017 15.1013 29.1111 15.0791C30.2205 15.0568 31.2945 15.4329 32.0958 16.1253C32.8978 16.817 33.3624 17.7687 33.3871 18.7697C33.4117 19.7701 32.9949 20.7392 32.2275 21.4629L24.0693 29.1591C23.3027 29.8828 22.2487 30.302 21.1393 30.3243C20.0299 30.3465 18.9559 29.9697 18.1538 29.278C17.3518 28.5856 16.888 27.6346 16.8633 26.6336C16.8387 25.6325 17.2555 24.6641 18.0221 23.9405Z" fill="white"/>
</mask>
<g mask="url(#mask11_1101_4530)">
<path d="M15.1299 26.6682L29.0695 13.5176L35.1168 18.7363L21.1771 31.8869L15.1299 26.6682Z" fill="black"/>
</g>
</g>
</g>
<mask id="path-17-outside-1_1101_4530" maskUnits="userSpaceOnUse" x="39.4287" y="4.04224" width="106" height="23" fill="black">
<rect fill="white" x="39.4287" y="4.04224" width="106" height="23"/>
<path d="M44.5367 21.1432C43.6445 21.1432 42.8441 21.0354 42.1368 20.8206C41.4287 20.6058 40.8594 20.391 40.4287 20.1755L41.0058 18.7094C41.4519 19.0146 41.9827 19.2572 42.5983 19.4372C43.2216 19.618 43.8217 19.7077 44.3988 19.7077C45.0367 19.7077 45.5791 19.5936 46.026 19.3642C46.4798 19.1286 46.7063 18.7441 46.7063 18.2102C46.7063 17.8425 46.553 17.5338 46.2448 17.2843C45.9451 17.0278 45.556 16.799 45.0791 16.5981C44.6022 16.3965 44.0945 16.1922 43.5559 15.9843C43.0251 15.7764 42.5212 15.5401 42.0443 15.2773C41.5674 15.0069 41.183 14.6808 40.8902 14.2992C40.5982 13.9175 40.4557 13.4497 40.4634 12.8949C40.4788 12.0072 40.8401 11.3072 41.5482 10.7941C42.2562 10.2741 43.2023 10.0141 44.3873 10.0141C45.1408 10.0141 45.8295 10.0976 46.4528 10.2637C47.0838 10.4298 47.6408 10.6273 48.1262 10.8567L47.6185 12.2609C47.1331 12.0246 46.6138 11.8376 46.0599 11.6992C45.5144 11.5532 44.9944 11.4803 44.5021 11.4803C43.8333 11.4803 43.3025 11.6019 42.9103 11.8445C42.5251 12.0802 42.3333 12.4132 42.3333 12.8428C42.3333 13.1688 42.4827 13.4497 42.7832 13.6854C43.0906 13.921 43.4828 14.14 43.9597 14.3409C44.4366 14.5349 44.9412 14.7365 45.472 14.9443C46.0098 15.1522 46.5137 15.3948 46.9837 15.6722C47.4606 15.9426 47.845 16.2686 48.137 16.6496C48.4298 17.0312 48.5685 17.4991 48.5531 18.0538C48.5299 18.9694 48.1563 19.7146 47.4336 20.2902C46.7179 20.8589 45.7525 21.1432 44.5367 21.1432ZM62.2677 21.2787C61.6676 21.1814 61.052 20.9423 60.421 20.5606C59.7977 20.179 59.2561 19.6416 58.7938 18.9485L56.9363 16.1504L53.4169 20.6336C53.2088 20.8623 52.9746 21.0014 52.7127 21.0493C52.4515 21.098 52.2242 21.0563 52.0316 20.9249C51.8398 20.7998 51.7435 20.5884 51.7435 20.2902V5.35437L53.6357 5.04224V17.8773L59.5904 10.2428L61.3101 10.7628L57.9979 14.8817L60.2715 18.106C60.6791 18.6885 61.1367 19.1494 61.6444 19.4894C62.1522 19.8293 62.7023 19.9955 63.2947 19.9885L62.2677 21.2787ZM68.2387 20.9666C67.6924 20.9666 67.1847 20.8728 66.7155 20.6858C66.2455 20.4981 65.8688 20.1901 65.5845 19.7598C65.2994 19.3302 65.1577 18.7511 65.1577 18.0225V10.2428H67.0614V17.9711C67.0614 18.699 67.204 19.1668 67.4883 19.3747C67.7733 19.5832 68.1116 19.6868 68.5037 19.6868C68.6809 19.6868 68.9113 19.6659 69.1963 19.6249C69.4806 19.5763 69.7233 19.5172 69.9229 19.4477L70.154 20.6023C69.8689 20.7066 69.5461 20.7928 69.1848 20.8623C68.8235 20.9319 68.5076 20.9666 68.2387 20.9666ZM65.123 8.03775V6.17607H67.1539V8.03775H65.123ZM78.9194 20.5502C78.1428 20.8554 77.3731 21.032 76.6119 21.0806C75.8576 21.1362 75.1727 21.0563 74.5579 20.8415C73.95 20.6197 73.4615 20.2589 73.0925 19.7598C72.7304 19.2537 72.5501 18.5982 72.5501 17.7938V5.35437L74.4423 5.04224V17.8773C74.4423 18.5982 74.6503 19.1042 75.0656 19.3955C75.4809 19.6868 76.0079 19.8154 76.6466 19.7806C77.293 19.7389 77.954 19.5902 78.6312 19.3336L78.9194 20.5502ZM87.2926 20.5502C86.5152 20.8554 85.7463 21.032 84.9843 21.0806C84.23 21.1362 83.5459 21.0563 82.9303 20.8415C82.3224 20.6197 81.834 20.2589 81.4649 19.7598C81.1028 19.2537 80.9225 18.5982 80.9225 17.7938V5.35437L82.8147 5.04224V17.8773C82.8147 18.5982 83.0228 19.1042 83.438 19.3955C83.8533 19.6868 84.3803 19.8154 85.019 19.7806C85.6654 19.7389 86.3264 19.5902 87.0036 19.3336L87.2926 20.5502ZM94.4993 21.1432C93.3298 21.1432 92.2835 20.9145 91.3605 20.4571C90.4452 19.9989 89.7218 19.351 89.1909 18.512C88.6601 17.6729 88.3951 16.6843 88.3951 15.5477C88.3951 14.5696 88.6293 13.6617 89.0985 12.8226C89.5754 11.9836 90.2603 11.3072 91.1525 10.7941C92.0531 10.2741 93.1341 10.0141 94.3953 10.0141C95.2266 10.0141 95.9454 10.1525 96.5533 10.4298C97.1689 10.7003 97.6419 11.068 97.9732 11.5324C98.3115 11.9975 98.481 12.5209 98.481 13.1028C98.481 13.9488 98.1381 14.6287 97.4532 15.1417C96.769 15.6548 95.8337 16.0573 94.6495 16.3479C93.4723 16.6329 92.1379 16.8686 90.6448 17.0556C90.7989 17.5825 91.0724 18.0469 91.4645 18.4494C91.8567 18.8442 92.3182 19.1529 92.849 19.3747C93.3798 19.5971 93.9299 19.7077 94.4993 19.7077C95.299 19.7077 96.034 19.5728 96.7035 19.3024C97.3808 19.025 97.9116 18.6885 98.296 18.293L99.2537 19.3955C98.6766 19.9294 97.9694 20.3563 97.1304 20.6753C96.2998 20.9875 95.4223 21.1432 94.4993 21.1432ZM90.5069 15.8181C91.691 15.6652 92.7411 15.4817 93.6572 15.2662C94.5725 15.0514 95.2921 14.7705 95.8152 14.4243C96.3376 14.0705 96.5995 13.6165 96.5995 13.0618C96.5995 12.5898 96.4069 12.2088 96.0225 11.9175C95.6457 11.6262 95.1072 11.4803 94.4068 11.4803C93.7689 11.4803 93.1456 11.6228 92.5377 11.9071C91.9376 12.1845 91.4414 12.6071 91.0492 13.1758C90.664 13.7375 90.4722 14.4487 90.4722 15.3079C90.4722 15.4817 90.4837 15.6513 90.5069 15.8181ZM106.643 21.1432C105.558 21.1432 104.608 20.918 103.792 20.4668C102.977 20.0163 102.342 19.3823 101.889 18.5634C101.435 17.7452 101.208 16.7921 101.208 15.7034C101.208 14.6287 101.412 13.6645 101.819 12.8115C102.235 11.9523 102.846 11.2724 103.654 10.7733C104.462 10.2672 105.458 10.0141 106.643 10.0141C107.404 10.0141 108.101 10.1177 108.732 10.3263C109.362 10.5341 109.993 10.8845 110.624 11.3767V5.25009L112.528 5.04224V16.8581C112.528 17.6485 112.574 18.293 112.666 18.7928C112.767 19.285 112.894 19.6868 113.047 19.9989C113.209 20.3111 113.374 20.5815 113.543 20.8102L111.674 21.0493C111.458 20.8137 111.259 20.512 111.074 20.1449C110.897 19.7702 110.797 19.4129 110.774 19.073C110.427 19.725 109.885 20.2346 109.147 20.6023C108.408 20.9631 107.574 21.1432 106.643 21.1432ZM106.85 19.7077C107.773 19.7077 108.512 19.5172 109.066 19.1355C109.62 18.7546 110.02 18.2381 110.266 17.586C110.512 16.9276 110.635 16.1852 110.635 15.36V13.1758C110.205 12.6558 109.647 12.2436 108.962 11.9384C108.285 11.6332 107.605 11.4803 106.92 11.4803C106.051 11.4803 105.339 11.6645 104.785 12.0315C104.231 12.3993 103.823 12.8984 103.561 13.5296C103.3 14.1539 103.169 14.8574 103.169 15.6409C103.169 16.4452 103.323 17.1564 103.631 17.773C103.946 18.3833 104.381 18.8581 104.935 19.1981C105.489 19.538 106.128 19.7077 106.85 19.7077ZM119.793 20.9666C119.247 20.9666 118.739 20.8728 118.27 20.6858C117.801 20.4981 117.423 20.1901 117.139 19.7598C116.855 19.3302 116.712 18.7511 116.712 18.0225V10.2428H118.616V17.9711C118.616 18.699 118.758 19.1668 119.043 19.3747C119.328 19.5832 119.666 19.6868 120.058 19.6868C120.235 19.6868 120.466 19.6659 120.751 19.6249C121.036 19.5763 121.278 19.5172 121.478 19.4477L121.708 20.6023C121.424 20.7066 121.1 20.7928 120.739 20.8623C120.378 20.9319 120.062 20.9666 119.793 20.9666ZM116.677 8.03775V6.17607H118.708V8.03775H116.677ZM128.628 20.9979C127.289 20.9979 126.316 20.7442 125.708 20.2381C125.101 19.732 124.797 18.9172 124.797 17.7938V11.3558H122.454V10.2428H124.854V7.41348L126.689 6.92477V10.2428H130.578V11.3558H126.689V17.8147C126.689 18.4668 126.863 18.9416 127.209 19.2398C127.554 19.5311 128.101 19.6764 128.847 19.6764C129.024 19.6764 129.251 19.6555 129.528 19.6145C129.813 19.5728 130.097 19.5207 130.382 19.4581C130.666 19.3955 130.897 19.3336 131.075 19.2711L131.293 20.5502C130.932 20.6614 130.478 20.765 129.932 20.8623C129.394 20.9527 128.958 20.9979 128.628 20.9979ZM138.242 26.0525C137.657 26.0525 137.012 25.9934 136.304 25.8759C135.596 25.7647 134.95 25.6125 134.365 25.4178L134.584 23.8266C135.115 24.0622 135.7 24.2534 136.338 24.3987C136.985 24.5509 137.566 24.6274 138.081 24.6274C139.288 24.6274 140.261 24.3292 141 23.7334C141.739 23.137 142.108 22.35 142.108 21.3719V19.5832C141.224 20.6232 139.962 21.1432 138.323 21.1432C137.577 21.1432 136.865 21.0146 136.188 20.7581C135.512 20.4946 134.965 20.0684 134.549 19.4789C134.134 18.8894 133.942 18.1025 133.973 17.1181L134.042 14.8609C134.08 13.7514 134.042 12.888 133.927 12.2707C133.819 11.654 133.703 11.2168 133.58 10.9603C133.457 10.6968 133.384 10.548 133.361 10.5133L135.265 10.2428C135.28 10.2776 135.35 10.4159 135.473 10.6586C135.603 10.9019 135.723 11.3419 135.831 11.9801C135.946 12.6106 135.985 13.5262 135.946 14.7253L135.877 17.1181C135.861 17.7973 135.985 18.3243 136.246 18.699C136.508 19.073 136.85 19.3371 137.273 19.4894C137.697 19.6347 138.143 19.7077 138.612 19.7077C139.25 19.7077 139.831 19.5797 140.354 19.3232C140.885 19.0667 141.308 18.699 141.624 18.2207C141.946 17.7354 142.108 17.1529 142.108 16.473V10.2428H144V21.1536C144 22.131 143.758 22.9875 143.274 23.723C142.797 24.4578 142.127 25.0299 141.266 25.4387C140.404 25.8481 139.396 26.0525 138.242 26.0525Z"/>
</mask>
<path d="M44.5367 21.1432C43.6445 21.1432 42.8441 21.0354 42.1368 20.8206C41.4287 20.6058 40.8594 20.391 40.4287 20.1755L41.0058 18.7094C41.4519 19.0146 41.9827 19.2572 42.5983 19.4372C43.2216 19.618 43.8217 19.7077 44.3988 19.7077C45.0367 19.7077 45.5791 19.5936 46.026 19.3642C46.4798 19.1286 46.7063 18.7441 46.7063 18.2102C46.7063 17.8425 46.553 17.5338 46.2448 17.2843C45.9451 17.0278 45.556 16.799 45.0791 16.5981C44.6022 16.3965 44.0945 16.1922 43.5559 15.9843C43.0251 15.7764 42.5212 15.5401 42.0443 15.2773C41.5674 15.0069 41.183 14.6808 40.8902 14.2992C40.5982 13.9175 40.4557 13.4497 40.4634 12.8949C40.4788 12.0072 40.8401 11.3072 41.5482 10.7941C42.2562 10.2741 43.2023 10.0141 44.3873 10.0141C45.1408 10.0141 45.8295 10.0976 46.4528 10.2637C47.0838 10.4298 47.6408 10.6273 48.1262 10.8567L47.6185 12.2609C47.1331 12.0246 46.6138 11.8376 46.0599 11.6992C45.5144 11.5532 44.9944 11.4803 44.5021 11.4803C43.8333 11.4803 43.3025 11.6019 42.9103 11.8445C42.5251 12.0802 42.3333 12.4132 42.3333 12.8428C42.3333 13.1688 42.4827 13.4497 42.7832 13.6854C43.0906 13.921 43.4828 14.14 43.9597 14.3409C44.4366 14.5349 44.9412 14.7365 45.472 14.9443C46.0098 15.1522 46.5137 15.3948 46.9837 15.6722C47.4606 15.9426 47.845 16.2686 48.137 16.6496C48.4298 17.0312 48.5685 17.4991 48.5531 18.0538C48.5299 18.9694 48.1563 19.7146 47.4336 20.2902C46.7179 20.8589 45.7525 21.1432 44.5367 21.1432ZM62.2677 21.2787C61.6676 21.1814 61.052 20.9423 60.421 20.5606C59.7977 20.179 59.2561 19.6416 58.7938 18.9485L56.9363 16.1504L53.4169 20.6336C53.2088 20.8623 52.9746 21.0014 52.7127 21.0493C52.4515 21.098 52.2242 21.0563 52.0316 20.9249C51.8398 20.7998 51.7435 20.5884 51.7435 20.2902V5.35437L53.6357 5.04224V17.8773L59.5904 10.2428L61.3101 10.7628L57.9979 14.8817L60.2715 18.106C60.6791 18.6885 61.1367 19.1494 61.6444 19.4894C62.1522 19.8293 62.7023 19.9955 63.2947 19.9885L62.2677 21.2787ZM68.2387 20.9666C67.6924 20.9666 67.1847 20.8728 66.7155 20.6858C66.2455 20.4981 65.8688 20.1901 65.5845 19.7598C65.2994 19.3302 65.1577 18.7511 65.1577 18.0225V10.2428H67.0614V17.9711C67.0614 18.699 67.204 19.1668 67.4883 19.3747C67.7733 19.5832 68.1116 19.6868 68.5037 19.6868C68.6809 19.6868 68.9113 19.6659 69.1963 19.6249C69.4806 19.5763 69.7233 19.5172 69.9229 19.4477L70.154 20.6023C69.8689 20.7066 69.5461 20.7928 69.1848 20.8623C68.8235 20.9319 68.5076 20.9666 68.2387 20.9666ZM65.123 8.03775V6.17607H67.1539V8.03775H65.123ZM78.9194 20.5502C78.1428 20.8554 77.3731 21.032 76.6119 21.0806C75.8576 21.1362 75.1727 21.0563 74.5579 20.8415C73.95 20.6197 73.4615 20.2589 73.0925 19.7598C72.7304 19.2537 72.5501 18.5982 72.5501 17.7938V5.35437L74.4423 5.04224V17.8773C74.4423 18.5982 74.6503 19.1042 75.0656 19.3955C75.4809 19.6868 76.0079 19.8154 76.6466 19.7806C77.293 19.7389 77.954 19.5902 78.6312 19.3336L78.9194 20.5502ZM87.2926 20.5502C86.5152 20.8554 85.7463 21.032 84.9843 21.0806C84.23 21.1362 83.5459 21.0563 82.9303 20.8415C82.3224 20.6197 81.834 20.2589 81.4649 19.7598C81.1028 19.2537 80.9225 18.5982 80.9225 17.7938V5.35437L82.8147 5.04224V17.8773C82.8147 18.5982 83.0228 19.1042 83.438 19.3955C83.8533 19.6868 84.3803 19.8154 85.019 19.7806C85.6654 19.7389 86.3264 19.5902 87.0036 19.3336L87.2926 20.5502ZM94.4993 21.1432C93.3298 21.1432 92.2835 20.9145 91.3605 20.4571C90.4452 19.9989 89.7218 19.351 89.1909 18.512C88.6601 17.6729 88.3951 16.6843 88.3951 15.5477C88.3951 14.5696 88.6293 13.6617 89.0985 12.8226C89.5754 11.9836 90.2603 11.3072 91.1525 10.7941C92.0531 10.2741 93.1341 10.0141 94.3953 10.0141C95.2266 10.0141 95.9454 10.1525 96.5533 10.4298C97.1689 10.7003 97.6419 11.068 97.9732 11.5324C98.3115 11.9975 98.481 12.5209 98.481 13.1028C98.481 13.9488 98.1381 14.6287 97.4532 15.1417C96.769 15.6548 95.8337 16.0573 94.6495 16.3479C93.4723 16.6329 92.1379 16.8686 90.6448 17.0556C90.7989 17.5825 91.0724 18.0469 91.4645 18.4494C91.8567 18.8442 92.3182 19.1529 92.849 19.3747C93.3798 19.5971 93.9299 19.7077 94.4993 19.7077C95.299 19.7077 96.034 19.5728 96.7035 19.3024C97.3808 19.025 97.9116 18.6885 98.296 18.293L99.2537 19.3955C98.6766 19.9294 97.9694 20.3563 97.1304 20.6753C96.2998 20.9875 95.4223 21.1432 94.4993 21.1432ZM90.5069 15.8181C91.691 15.6652 92.7411 15.4817 93.6572 15.2662C94.5725 15.0514 95.2921 14.7705 95.8152 14.4243C96.3376 14.0705 96.5995 13.6165 96.5995 13.0618C96.5995 12.5898 96.4069 12.2088 96.0225 11.9175C95.6457 11.6262 95.1072 11.4803 94.4068 11.4803C93.7689 11.4803 93.1456 11.6228 92.5377 11.9071C91.9376 12.1845 91.4414 12.6071 91.0492 13.1758C90.664 13.7375 90.4722 14.4487 90.4722 15.3079C90.4722 15.4817 90.4837 15.6513 90.5069 15.8181ZM106.643 21.1432C105.558 21.1432 104.608 20.918 103.792 20.4668C102.977 20.0163 102.342 19.3823 101.889 18.5634C101.435 17.7452 101.208 16.7921 101.208 15.7034C101.208 14.6287 101.412 13.6645 101.819 12.8115C102.235 11.9523 102.846 11.2724 103.654 10.7733C104.462 10.2672 105.458 10.0141 106.643 10.0141C107.404 10.0141 108.101 10.1177 108.732 10.3263C109.362 10.5341 109.993 10.8845 110.624 11.3767V5.25009L112.528 5.04224V16.8581C112.528 17.6485 112.574 18.293 112.666 18.7928C112.767 19.285 112.894 19.6868 113.047 19.9989C113.209 20.3111 113.374 20.5815 113.543 20.8102L111.674 21.0493C111.458 20.8137 111.259 20.512 111.074 20.1449C110.897 19.7702 110.797 19.4129 110.774 19.073C110.427 19.725 109.885 20.2346 109.147 20.6023C108.408 20.9631 107.574 21.1432 106.643 21.1432ZM106.85 19.7077C107.773 19.7077 108.512 19.5172 109.066 19.1355C109.62 18.7546 110.02 18.2381 110.266 17.586C110.512 16.9276 110.635 16.1852 110.635 15.36V13.1758C110.205 12.6558 109.647 12.2436 108.962 11.9384C108.285 11.6332 107.605 11.4803 106.92 11.4803C106.051 11.4803 105.339 11.6645 104.785 12.0315C104.231 12.3993 103.823 12.8984 103.561 13.5296C103.3 14.1539 103.169 14.8574 103.169 15.6409C103.169 16.4452 103.323 17.1564 103.631 17.773C103.946 18.3833 104.381 18.8581 104.935 19.1981C105.489 19.538 106.128 19.7077 106.85 19.7077ZM119.793 20.9666C119.247 20.9666 118.739 20.8728 118.27 20.6858C117.801 20.4981 117.423 20.1901 117.139 19.7598C116.855 19.3302 116.712 18.7511 116.712 18.0225V10.2428H118.616V17.9711C118.616 18.699 118.758 19.1668 119.043 19.3747C119.328 19.5832 119.666 19.6868 120.058 19.6868C120.235 19.6868 120.466 19.6659 120.751 19.6249C121.036 19.5763 121.278 19.5172 121.478 19.4477L121.708 20.6023C121.424 20.7066 121.1 20.7928 120.739 20.8623C120.378 20.9319 120.062 20.9666 119.793 20.9666ZM116.677 8.03775V6.17607H118.708V8.03775H116.677ZM128.628 20.9979C127.289 20.9979 126.316 20.7442 125.708 20.2381C125.101 19.732 124.797 18.9172 124.797 17.7938V11.3558H122.454V10.2428H124.854V7.41348L126.689 6.92477V10.2428H130.578V11.3558H126.689V17.8147C126.689 18.4668 126.863 18.9416 127.209 19.2398C127.554 19.5311 128.101 19.6764 128.847 19.6764C129.024 19.6764 129.251 19.6555 129.528 19.6145C129.813 19.5728 130.097 19.5207 130.382 19.4581C130.666 19.3955 130.897 19.3336 131.075 19.2711L131.293 20.5502C130.932 20.6614 130.478 20.765 129.932 20.8623C129.394 20.9527 128.958 20.9979 128.628 20.9979ZM138.242 26.0525C137.657 26.0525 137.012 25.9934 136.304 25.8759C135.596 25.7647 134.95 25.6125 134.365 25.4178L134.584 23.8266C135.115 24.0622 135.7 24.2534 136.338 24.3987C136.985 24.5509 137.566 24.6274 138.081 24.6274C139.288 24.6274 140.261 24.3292 141 23.7334C141.739 23.137 142.108 22.35 142.108 21.3719V19.5832C141.224 20.6232 139.962 21.1432 138.323 21.1432C137.577 21.1432 136.865 21.0146 136.188 20.7581C135.512 20.4946 134.965 20.0684 134.549 19.4789C134.134 18.8894 133.942 18.1025 133.973 17.1181L134.042 14.8609C134.08 13.7514 134.042 12.888 133.927 12.2707C133.819 11.654 133.703 11.2168 133.58 10.9603C133.457 10.6968 133.384 10.548 133.361 10.5133L135.265 10.2428C135.28 10.2776 135.35 10.4159 135.473 10.6586C135.603 10.9019 135.723 11.3419 135.831 11.9801C135.946 12.6106 135.985 13.5262 135.946 14.7253L135.877 17.1181C135.861 17.7973 135.985 18.3243 136.246 18.699C136.508 19.073 136.85 19.3371 137.273 19.4894C137.697 19.6347 138.143 19.7077 138.612 19.7077C139.25 19.7077 139.831 19.5797 140.354 19.3232C140.885 19.0667 141.308 18.699 141.624 18.2207C141.946 17.7354 142.108 17.1529 142.108 16.473V10.2428H144V21.1536C144 22.131 143.758 22.9875 143.274 23.723C142.797 24.4578 142.127 25.0299 141.266 25.4387C140.404 25.8481 139.396 26.0525 138.242 26.0525Z" fill="black"/>
<path d="M44.5367 21.1432C43.6445 21.1432 42.8441 21.0354 42.1368 20.8206C41.4287 20.6058 40.8594 20.391 40.4287 20.1755L41.0058 18.7094C41.4519 19.0146 41.9827 19.2572 42.5983 19.4372C43.2216 19.618 43.8217 19.7077 44.3988 19.7077C45.0367 19.7077 45.5791 19.5936 46.026 19.3642C46.4798 19.1286 46.7063 18.7441 46.7063 18.2102C46.7063 17.8425 46.553 17.5338 46.2448 17.2843C45.9451 17.0278 45.556 16.799 45.0791 16.5981C44.6022 16.3965 44.0945 16.1922 43.5559 15.9843C43.0251 15.7764 42.5212 15.5401 42.0443 15.2773C41.5674 15.0069 41.183 14.6808 40.8902 14.2992C40.5982 13.9175 40.4557 13.4497 40.4634 12.8949C40.4788 12.0072 40.8401 11.3072 41.5482 10.7941C42.2562 10.2741 43.2023 10.0141 44.3873 10.0141C45.1408 10.0141 45.8295 10.0976 46.4528 10.2637C47.0838 10.4298 47.6408 10.6273 48.1262 10.8567L47.6185 12.2609C47.1331 12.0246 46.6138 11.8376 46.0599 11.6992C45.5144 11.5532 44.9944 11.4803 44.5021 11.4803C43.8333 11.4803 43.3025 11.6019 42.9103 11.8445C42.5251 12.0802 42.3333 12.4132 42.3333 12.8428C42.3333 13.1688 42.4827 13.4497 42.7832 13.6854C43.0906 13.921 43.4828 14.14 43.9597 14.3409C44.4366 14.5349 44.9412 14.7365 45.472 14.9443C46.0098 15.1522 46.5137 15.3948 46.9837 15.6722C47.4606 15.9426 47.845 16.2686 48.137 16.6496C48.4298 17.0312 48.5685 17.4991 48.5531 18.0538C48.5299 18.9694 48.1563 19.7146 47.4336 20.2902C46.7179 20.8589 45.7525 21.1432 44.5367 21.1432ZM62.2677 21.2787C61.6676 21.1814 61.052 20.9423 60.421 20.5606C59.7977 20.179 59.2561 19.6416 58.7938 18.9485L56.9363 16.1504L53.4169 20.6336C53.2088 20.8623 52.9746 21.0014 52.7127 21.0493C52.4515 21.098 52.2242 21.0563 52.0316 20.9249C51.8398 20.7998 51.7435 20.5884 51.7435 20.2902V5.35437L53.6357 5.04224V17.8773L59.5904 10.2428L61.3101 10.7628L57.9979 14.8817L60.2715 18.106C60.6791 18.6885 61.1367 19.1494 61.6444 19.4894C62.1522 19.8293 62.7023 19.9955 63.2947 19.9885L62.2677 21.2787ZM68.2387 20.9666C67.6924 20.9666 67.1847 20.8728 66.7155 20.6858C66.2455 20.4981 65.8688 20.1901 65.5845 19.7598C65.2994 19.3302 65.1577 18.7511 65.1577 18.0225V10.2428H67.0614V17.9711C67.0614 18.699 67.204 19.1668 67.4883 19.3747C67.7733 19.5832 68.1116 19.6868 68.5037 19.6868C68.6809 19.6868 68.9113 19.6659 69.1963 19.6249C69.4806 19.5763 69.7233 19.5172 69.9229 19.4477L70.154 20.6023C69.8689 20.7066 69.5461 20.7928 69.1848 20.8623C68.8235 20.9319 68.5076 20.9666 68.2387 20.9666ZM65.123 8.03775V6.17607H67.1539V8.03775H65.123ZM78.9194 20.5502C78.1428 20.8554 77.3731 21.032 76.6119 21.0806C75.8576 21.1362 75.1727 21.0563 74.5579 20.8415C73.95 20.6197 73.4615 20.2589 73.0925 19.7598C72.7304 19.2537 72.5501 18.5982 72.5501 17.7938V5.35437L74.4423 5.04224V17.8773C74.4423 18.5982 74.6503 19.1042 75.0656 19.3955C75.4809 19.6868 76.0079 19.8154 76.6466 19.7806C77.293 19.7389 77.954 19.5902 78.6312 19.3336L78.9194 20.5502ZM87.2926 20.5502C86.5152 20.8554 85.7463 21.032 84.9843 21.0806C84.23 21.1362 83.5459 21.0563 82.9303 20.8415C82.3224 20.6197 81.834 20.2589 81.4649 19.7598C81.1028 19.2537 80.9225 18.5982 80.9225 17.7938V5.35437L82.8147 5.04224V17.8773C82.8147 18.5982 83.0228 19.1042 83.438 19.3955C83.8533 19.6868 84.3803 19.8154 85.019 19.7806C85.6654 19.7389 86.3264 19.5902 87.0036 19.3336L87.2926 20.5502ZM94.4993 21.1432C93.3298 21.1432 92.2835 20.9145 91.3605 20.4571C90.4452 19.9989 89.7218 19.351 89.1909 18.512C88.6601 17.6729 88.3951 16.6843 88.3951 15.5477C88.3951 14.5696 88.6293 13.6617 89.0985 12.8226C89.5754 11.9836 90.2603 11.3072 91.1525 10.7941C92.0531 10.2741 93.1341 10.0141 94.3953 10.0141C95.2266 10.0141 95.9454 10.1525 96.5533 10.4298C97.1689 10.7003 97.6419 11.068 97.9732 11.5324C98.3115 11.9975 98.481 12.5209 98.481 13.1028C98.481 13.9488 98.1381 14.6287 97.4532 15.1417C96.769 15.6548 95.8337 16.0573 94.6495 16.3479C93.4723 16.6329 92.1379 16.8686 90.6448 17.0556C90.7989 17.5825 91.0724 18.0469 91.4645 18.4494C91.8567 18.8442 92.3182 19.1529 92.849 19.3747C93.3798 19.5971 93.9299 19.7077 94.4993 19.7077C95.299 19.7077 96.034 19.5728 96.7035 19.3024C97.3808 19.025 97.9116 18.6885 98.296 18.293L99.2537 19.3955C98.6766 19.9294 97.9694 20.3563 97.1304 20.6753C96.2998 20.9875 95.4223 21.1432 94.4993 21.1432ZM90.5069 15.8181C91.691 15.6652 92.7411 15.4817 93.6572 15.2662C94.5725 15.0514 95.2921 14.7705 95.8152 14.4243C96.3376 14.0705 96.5995 13.6165 96.5995 13.0618C96.5995 12.5898 96.4069 12.2088 96.0225 11.9175C95.6457 11.6262 95.1072 11.4803 94.4068 11.4803C93.7689 11.4803 93.1456 11.6228 92.5377 11.9071C91.9376 12.1845 91.4414 12.6071 91.0492 13.1758C90.664 13.7375 90.4722 14.4487 90.4722 15.3079C90.4722 15.4817 90.4837 15.6513 90.5069 15.8181ZM106.643 21.1432C105.558 21.1432 104.608 20.918 103.792 20.4668C102.977 20.0163 102.342 19.3823 101.889 18.5634C101.435 17.7452 101.208 16.7921 101.208 15.7034C101.208 14.6287 101.412 13.6645 101.819 12.8115C102.235 11.9523 102.846 11.2724 103.654 10.7733C104.462 10.2672 105.458 10.0141 106.643 10.0141C107.404 10.0141 108.101 10.1177 108.732 10.3263C109.362 10.5341 109.993 10.8845 110.624 11.3767V5.25009L112.528 5.04224V16.8581C112.528 17.6485 112.574 18.293 112.666 18.7928C112.767 19.285 112.894 19.6868 113.047 19.9989C113.209 20.3111 113.374 20.5815 113.543 20.8102L111.674 21.0493C111.458 20.8137 111.259 20.512 111.074 20.1449C110.897 19.7702 110.797 19.4129 110.774 19.073C110.427 19.725 109.885 20.2346 109.147 20.6023C108.408 20.9631 107.574 21.1432 106.643 21.1432ZM106.85 19.7077C107.773 19.7077 108.512 19.5172 109.066 19.1355C109.62 18.7546 110.02 18.2381 110.266 17.586C110.512 16.9276 110.635 16.1852 110.635 15.36V13.1758C110.205 12.6558 109.647 12.2436 108.962 11.9384C108.285 11.6332 107.605 11.4803 106.92 11.4803C106.051 11.4803 105.339 11.6645 104.785 12.0315C104.231 12.3993 103.823 12.8984 103.561 13.5296C103.3 14.1539 103.169 14.8574 103.169 15.6409C103.169 16.4452 103.323 17.1564 103.631 17.773C103.946 18.3833 104.381 18.8581 104.935 19.1981C105.489 19.538 106.128 19.7077 106.85 19.7077ZM119.793 20.9666C119.247 20.9666 118.739 20.8728 118.27 20.6858C117.801 20.4981 117.423 20.1901 117.139 19.7598C116.855 19.3302 116.712 18.7511 116.712 18.0225V10.2428H118.616V17.9711C118.616 18.699 118.758 19.1668 119.043 19.3747C119.328 19.5832 119.666 19.6868 120.058 19.6868C120.235 19.6868 120.466 19.6659 120.751 19.6249C121.036 19.5763 121.278 19.5172 121.478 19.4477L121.708 20.6023C121.424 20.7066 121.1 20.7928 120.739 20.8623C120.378 20.9319 120.062 20.9666 119.793 20.9666ZM116.677 8.03775V6.17607H118.708V8.03775H116.677ZM128.628 20.9979C127.289 20.9979 126.316 20.7442 125.708 20.2381C125.101 19.732 124.797 18.9172 124.797 17.7938V11.3558H122.454V10.2428H124.854V7.41348L126.689 6.92477V10.2428H130.578V11.3558H126.689V17.8147C126.689 18.4668 126.863 18.9416 127.209 19.2398C127.554 19.5311 128.101 19.6764 128.847 19.6764C129.024 19.6764 129.251 19.6555 129.528 19.6145C129.813 19.5728 130.097 19.5207 130.382 19.4581C130.666 19.3955 130.897 19.3336 131.075 19.2711L131.293 20.5502C130.932 20.6614 130.478 20.765 129.932 20.8623C129.394 20.9527 128.958 20.9979 128.628 20.9979ZM138.242 26.0525C137.657 26.0525 137.012 25.9934 136.304 25.8759C135.596 25.7647 134.95 25.6125 134.365 25.4178L134.584 23.8266C135.115 24.0622 135.7 24.2534 136.338 24.3987C136.985 24.5509 137.566 24.6274 138.081 24.6274C139.288 24.6274 140.261 24.3292 141 23.7334C141.739 23.137 142.108 22.35 142.108 21.3719V19.5832C141.224 20.6232 139.962 21.1432 138.323 21.1432C137.577 21.1432 136.865 21.0146 136.188 20.7581C135.512 20.4946 134.965 20.0684 134.549 19.4789C134.134 18.8894 133.942 18.1025 133.973 17.1181L134.042 14.8609C134.08 13.7514 134.042 12.888 133.927 12.2707C133.819 11.654 133.703 11.2168 133.58 10.9603C133.457 10.6968 133.384 10.548 133.361 10.5133L135.265 10.2428C135.28 10.2776 135.35 10.4159 135.473 10.6586C135.603 10.9019 135.723 11.3419 135.831 11.9801C135.946 12.6106 135.985 13.5262 135.946 14.7253L135.877 17.1181C135.861 17.7973 135.985 18.3243 136.246 18.699C136.508 19.073 136.85 19.3371 137.273 19.4894C137.697 19.6347 138.143 19.7077 138.612 19.7077C139.25 19.7077 139.831 19.5797 140.354 19.3232C140.885 19.0667 141.308 18.699 141.624 18.2207C141.946 17.7354 142.108 17.1529 142.108 16.473V10.2428H144V21.1536C144 22.131 143.758 22.9875 143.274 23.723C142.797 24.4578 142.127 25.0299 141.266 25.4387C140.404 25.8481 139.396 26.0525 138.242 26.0525Z" stroke="black" stroke-width="1.2" mask="url(#path-17-outside-1_1101_4530)"/>
</svg>
