<svg width="149" height="41" viewBox="0 0 149 41" fill="none" xmlns="http://www.w3.org/2000/svg">
<path d="M59.06 27.16C58.14 27.16 57.2533 27.0533 56.4 26.84C55.56 26.6133 54.8933 26.3333 54.4 26L55.44 23.76C55.9333 24.0667 56.5133 24.32 57.18 24.52C57.86 24.7067 58.5267 24.8 59.18 24.8C59.9 24.8 60.4067 24.7133 60.7 24.54C61.0067 24.3667 61.16 24.1267 61.16 23.82C61.16 23.5667 61.04 23.38 60.8 23.26C60.5733 23.1267 60.2667 23.0267 59.88 22.96C59.4933 22.8933 59.0667 22.8267 58.6 22.76C58.1467 22.6933 57.6867 22.6067 57.22 22.5C56.7533 22.38 56.3267 22.2067 55.94 21.98C55.5533 21.7533 55.24 21.4467 55 21.06C54.7733 20.6733 54.66 20.1733 54.66 19.56C54.66 18.88 54.8533 18.28 55.24 17.76C55.64 17.24 56.2133 16.8333 56.96 16.54C57.7067 16.2333 58.6 16.08 59.64 16.08C60.3733 16.08 61.12 16.16 61.88 16.32C62.64 16.48 63.2733 16.7133 63.78 17.02L62.74 19.24C62.22 18.9333 61.6933 18.7267 61.16 18.62C60.64 18.5 60.1333 18.44 59.64 18.44C58.9467 18.44 58.44 18.5333 58.12 18.72C57.8 18.9067 57.64 19.1467 57.64 19.44C57.64 19.7067 57.7533 19.9067 57.98 20.04C58.22 20.1733 58.5333 20.28 58.92 20.36C59.3067 20.44 59.7267 20.5133 60.18 20.58C60.6467 20.6333 61.1133 20.72 61.58 20.84C62.0467 20.96 62.4667 21.1333 62.84 21.36C63.2267 21.5733 63.54 21.8733 63.78 22.26C64.02 22.6333 64.14 23.1267 64.14 23.74C64.14 24.4067 63.94 25 63.54 25.52C63.14 26.0267 62.56 26.4267 61.8 26.72C61.0533 27.0133 60.14 27.16 59.06 27.16ZM68.645 24.8L68.725 21L73.745 16.24H77.465L72.645 21.14L71.025 22.46L68.645 24.8ZM66.065 27V12.16H69.185V27H66.065ZM74.085 27L70.445 22.48L72.405 20.06L77.865 27H74.085ZM79.2681 27V16.24H82.3881V27H79.2681ZM80.8281 14.74C80.2548 14.74 79.7881 14.5733 79.4281 14.24C79.0681 13.9067 78.8881 13.4933 78.8881 13C78.8881 12.5067 79.0681 12.0933 79.4281 11.76C79.7881 11.4267 80.2548 11.26 80.8281 11.26C81.4015 11.26 81.8681 11.42 82.2281 11.74C82.5881 12.0467 82.7681 12.4467 82.7681 12.94C82.7681 13.46 82.5881 13.8933 82.2281 14.24C81.8815 14.5733 81.4148 14.74 80.8281 14.74ZM85.2838 27V12.16H88.4038V27H85.2838ZM91.2994 27V12.16H94.4194V27H91.2994ZM102.655 27.16C101.428 27.16 100.348 26.92 99.415 26.44C98.495 25.96 97.7817 25.3067 97.275 24.48C96.7683 23.64 96.515 22.6867 96.515 21.62C96.515 20.54 96.7617 19.5867 97.255 18.76C97.7617 17.92 98.4483 17.2667 99.315 16.8C100.182 16.32 101.162 16.08 102.255 16.08C103.308 16.08 104.255 16.3067 105.095 16.76C105.948 17.2 106.622 17.84 107.115 18.68C107.608 19.5067 107.855 20.5 107.855 21.66C107.855 21.78 107.848 21.92 107.835 22.08C107.822 22.2267 107.808 22.3667 107.795 22.5H99.055V20.68H106.155L104.955 21.22C104.955 20.66 104.842 20.1733 104.615 19.76C104.388 19.3467 104.075 19.0267 103.675 18.8C103.275 18.56 102.808 18.44 102.275 18.44C101.742 18.44 101.268 18.56 100.855 18.8C100.455 19.0267 100.142 19.3533 99.915 19.78C99.6883 20.1933 99.575 20.6867 99.575 21.26V21.74C99.575 22.3267 99.7017 22.8467 99.955 23.3C100.222 23.74 100.588 24.08 101.055 24.32C101.535 24.5467 102.095 24.66 102.735 24.66C103.308 24.66 103.808 24.5733 104.235 24.4C104.675 24.2267 105.075 23.9667 105.435 23.62L107.095 25.42C106.602 25.98 105.982 26.4133 105.235 26.72C104.488 27.0133 103.628 27.16 102.655 27.16ZM114.552 27.16C113.539 27.16 112.626 26.9333 111.812 26.48C110.999 26.0133 110.352 25.3667 109.872 24.54C109.406 23.7133 109.172 22.74 109.172 21.62C109.172 20.4867 109.406 19.5067 109.872 18.68C110.352 17.8533 110.999 17.2133 111.812 16.76C112.626 16.3067 113.539 16.08 114.552 16.08C115.459 16.08 116.252 16.28 116.932 16.68C117.612 17.08 118.139 17.6867 118.512 18.5C118.886 19.3133 119.072 20.3533 119.072 21.62C119.072 22.8733 118.892 23.9133 118.532 24.74C118.172 25.5533 117.652 26.16 116.972 26.56C116.306 26.96 115.499 27.16 114.552 27.16ZM115.092 24.6C115.599 24.6 116.059 24.48 116.472 24.24C116.886 24 117.212 23.66 117.452 23.22C117.706 22.7667 117.832 22.2333 117.832 21.62C117.832 20.9933 117.706 20.46 117.452 20.02C117.212 19.58 116.886 19.24 116.472 19C116.059 18.76 115.599 18.64 115.092 18.64C114.572 18.64 114.106 18.76 113.692 19C113.279 19.24 112.946 19.58 112.692 20.02C112.452 20.46 112.332 20.9933 112.332 21.62C112.332 22.2333 112.452 22.7667 112.692 23.22C112.946 23.66 113.279 24 113.692 24.24C114.106 24.48 114.572 24.6 115.092 24.6ZM117.912 27V24.8L117.972 21.6L117.772 18.42V12.16H120.892V27H117.912ZM123.78 27V16.24H126.9V27H123.78ZM125.34 14.74C124.767 14.74 124.3 14.5733 123.94 14.24C123.58 13.9067 123.4 13.4933 123.4 13C123.4 12.5067 123.58 12.0933 123.94 11.76C124.3 11.4267 124.767 11.26 125.34 11.26C125.913 11.26 126.38 11.42 126.74 11.74C127.1 12.0467 127.28 12.4467 127.28 12.94C127.28 13.46 127.1 13.8933 126.74 14.24C126.393 14.5733 125.927 14.74 125.34 14.74ZM134.195 27.16C132.929 27.16 131.942 26.84 131.235 26.2C130.529 25.5467 130.175 24.58 130.175 23.3V13.86H133.295V23.26C133.295 23.7133 133.415 24.0667 133.655 24.32C133.895 24.56 134.222 24.68 134.635 24.68C135.129 24.68 135.549 24.5467 135.895 24.28L136.735 26.48C136.415 26.7067 136.029 26.88 135.575 27C135.135 27.1067 134.675 27.16 134.195 27.16ZM128.515 18.88V16.48H135.975V18.88H128.515ZM139.652 31.04C139.092 31.04 138.538 30.9533 137.992 30.78C137.445 30.6067 136.998 30.3667 136.652 30.06L137.792 27.84C138.032 28.0533 138.305 28.22 138.612 28.34C138.932 28.46 139.245 28.52 139.552 28.52C139.992 28.52 140.338 28.4133 140.592 28.2C140.858 28 141.098 27.66 141.312 27.18L141.872 25.86L142.112 25.52L145.972 16.24H148.972L144.112 27.66C143.765 28.5267 143.365 29.2067 142.912 29.7C142.472 30.1933 141.978 30.54 141.432 30.74C140.898 30.94 140.305 31.04 139.652 31.04ZM141.492 27.42L136.692 16.24H139.912L143.632 25.24L141.492 27.42Z" fill="black"/>
<path d="M5 16L15.6066 5.3934" stroke="black" stroke-width="10" stroke-linecap="round"/>
<path d="M26 15.6066L36.6066 4.99997" stroke="black" stroke-width="10" stroke-linecap="round"/>
<path d="M5 35.6066L15.6066 25" stroke="black" stroke-width="10" stroke-linecap="round"/>
<path d="M26 35.6066L36.6066 25" stroke="black" stroke-width="10" stroke-linecap="round"/>
</svg>
