<svg width="184" height="160" viewBox="0 0 184 160" fill="none" xmlns="http://www.w3.org/2000/svg">
<path d="M39.6808 47.7693C39.5392 48.5166 39.5878 49.2818 39.8233 50.011C40.0589 50.7402 40.4756 51.4157 41.044 51.9898C41.6125 52.5639 42.319 53.0228 43.1137 53.3341C43.9083 53.6453 44.7719 53.8014 45.6435 53.7913L60.2495 90.7171L69.5691 85.1521L51.5781 48.1688C51.4616 46.8978 50.8124 45.708 49.7537 44.8249C48.695 43.9419 47.3002 43.427 45.8337 43.3777C44.3672 43.3285 42.9309 43.7483 41.7969 44.5577C40.6628 45.3671 39.9099 46.5098 39.6808 47.7693Z" fill="#A0616A"/>
<path d="M115.915 60.2631C109.428 66.6748 93.4348 77.9742 80.2594 85.7548C77.4115 87.4366 74.6936 88.9513 72.2328 90.2191C70.5707 91.0752 69.0249 91.8161 67.6334 92.4206C66.6995 92.8248 65.6796 93.0571 64.6376 93.103C63.5956 93.1488 62.5539 93.0072 61.5778 92.6871C60.6017 92.3669 59.7121 91.8751 58.9649 91.2424C58.2177 90.6096 57.629 89.8497 57.2355 89.0101L48.1125 69.8337L51.269 68.0155L59.0519 63.5301L60.8197 62.514L68.118 77.6167L75.8143 72.2492L80.5923 68.9164L102.374 53.729L104.252 53.2445L108.635 56.9608L111.735 59.5904L114.65 60.0302C115.086 60.0961 115.509 60.1737 115.915 60.2631Z" fill="#6C63FF"/>
<path d="M126.805 80.8202L125.988 129.604L59.9453 127.958L70.4922 107.73C70.4164 107.081 75.1213 102.525 75.0942 101.85C75.013 99.8719 76.7131 98.0397 76.9892 95.9699C77.5523 91.7009 74.3281 75.5798 75.8143 72.2492C76.4474 70.762 77.2586 69.3367 78.2345 67.9967C79.0791 66.8865 79.9454 66.1386 80.7737 65.8681L83.2155 60.924L85.3812 58.1015L102.374 53.729L104.252 53.2445L108.635 56.9608L111.735 59.5904L114.65 60.0302C115.086 60.0961 115.509 60.1737 115.915 60.2631C117.87 60.6549 119.693 61.4395 121.237 62.554C126.326 66.3103 126.919 73.3759 126.805 80.8202Z" fill="#6C63FF"/>
<path d="M164.733 129.238C162.871 131.268 160.897 133.214 158.813 135.076L151.671 135.081L113.266 135.118L106.352 135.125L101.755 135.13L94.917 135.135L89.6571 135.139L79.9413 135.149L74.2103 135.156L62.1421 135.165L56.3814 135.172L40.4176 135.186L30.3905 135.196L27.6996 135.198C27.1014 134.667 26.5121 134.127 25.9319 133.58C24.4863 132.218 23.0958 130.814 21.7603 129.367L27.3315 129.363L31.1268 129.36L39.9141 129.351L56.8714 129.337L62.6023 129.332L64.9196 129.33H64.9277L66.7469 129.327L67.5617 129.325L69.6489 129.323H70.5314L76.7198 129.318L90.0685 129.304L95.9429 129.299L101.568 129.295L106.842 129.29L114.408 129.283L154.82 129.248L164.733 129.238Z" fill="#CCCCCC"/>
<path d="M73.3619 55.9875L73.3472 55.9887C72.5663 56.0519 71.7884 55.8429 71.1848 55.4077C70.5812 54.9726 70.2013 54.3469 70.1286 53.6684L68.5891 39.3914C68.3105 36.8338 68.6265 34.2536 69.5186 31.8042C71.267 27.0237 75.0712 23.0139 80.1385 20.6103C82.7549 19.3725 85.6327 18.6079 88.5985 18.3624C100.732 17.358 105.166 19.5536 112.66 35.6316C120.155 51.7096 114.202 49.9303 114.202 49.9303C114.24 50.2744 114.197 50.6215 114.077 50.951C113.841 51.5938 113.328 52.1325 112.646 52.4547C112.296 52.6196 111.911 52.7217 111.515 52.7549C97.171 55.9228 82.6974 59.2574 73.3595 55.9877L73.3619 55.9875Z" fill="#2F2E41"/>
<path d="M100.06 31.8903C101.86 34.205 102.831 36.9314 102.849 39.7251C102.868 42.5189 101.933 45.2546 100.162 47.587C98.3921 49.9193 95.8661 51.7435 92.9033 52.8292C89.9405 53.9149 86.6739 54.2134 83.516 53.687C81.4256 53.3444 79.4341 52.6449 77.6571 51.6289C75.8801 50.6128 74.3528 49.3005 73.1636 47.768C71.3669 45.454 70.3988 42.7297 70.3816 39.9384C70.3643 37.1471 71.2987 34.4139 73.0668 32.0833C74.8349 29.7528 77.3576 27.9292 80.3168 26.8426C83.2761 25.7561 86.5393 25.455 89.6952 25.9776C91.7873 26.3181 93.7808 27.0161 95.56 28.0312C97.3392 29.0463 98.8687 30.3582 100.06 31.8908L100.06 31.8903Z" fill="#9E616A"/>
<path d="M63.5026 40.9775C63.2824 38.9547 63.5324 36.9141 64.2378 34.977C64.4014 30.2382 65.9838 25.946 72.636 26.1262C74.6923 25.1543 76.9525 24.5516 79.2823 24.3542L82.5696 24.0721C82.6065 24.0689 82.6435 24.0658 82.6804 24.0629C84.9579 23.8787 87.2548 24.0861 89.4401 24.6732C91.6253 25.2603 93.6561 26.2156 95.4164 27.4846C97.1767 28.7536 98.6321 30.3115 99.6995 32.0692C100.767 33.8269 101.425 35.75 101.637 37.7288L101.668 38.0148L94.7133 38.6055L91.72 33.0401L91.8677 38.8484L88.2757 39.1547L86.7662 36.3468L86.8399 39.2753C81.5065 43.3565 73.4191 43.5704 63.5366 41.2638L63.5026 40.9775Z" fill="#2F2E41"/>
<path d="M85.7495 54.5253C85.6903 54.9957 85.7842 55.4711 86.0206 55.8974C86.1397 56.1157 86.2934 56.3185 86.4773 56.4998C86.6346 56.6542 86.8124 56.7919 87.007 56.91C87.5831 57.2585 88.2834 57.4173 88.9821 57.3577C89.0256 57.3538 89.069 57.3492 89.1124 57.3439C89.1557 57.3386 89.199 57.3324 89.2422 57.3253C89.2858 57.3186 89.3291 57.3108 89.3721 57.3019C89.4151 57.2931 89.4582 57.2835 89.5015 57.2732L91.9288 56.6822L94.6492 50.0919L95.2728 55.8748L106.31 53.2048L103.664 28.6645L84.8513 30.2751L85.3672 30.7068C87.0816 32.1565 88.3023 33.9891 88.8951 36.0028C89.4834 38.0434 89.665 40.1565 89.432 42.2504C89.2143 44.3676 88.7631 46.4618 88.0847 48.5042C87.4941 50.3126 86.7841 52.09 85.9582 53.8275C85.8514 54.0505 85.7811 54.2853 85.7495 54.5253Z" fill="#2F2E41"/>
<path d="M88.258 131.898C87.9345 131.897 87.6152 131.835 87.3231 131.714L35.206 132.869C34.8061 132.705 34.473 132.438 34.2508 132.106C34.0286 131.773 33.9277 131.39 33.9614 131.007C33.9952 130.623 34.1619 130.258 34.4397 129.959C34.7175 129.659 35.0933 129.44 35.5173 129.331L69.6138 120.497C69.9669 120.406 70.3408 120.393 70.7009 120.461L123.442 126.046C123.909 126.134 124.33 126.352 124.641 126.667C124.951 126.982 125.135 127.377 125.164 127.791C125.192 128.205 125.064 128.616 124.798 128.961C124.533 129.305 124.144 129.565 123.693 129.7L88.9721 131.793C88.7424 131.862 88.501 131.897 88.258 131.898Z" fill="#3F3D56"/>
<path d="M90.1748 128.745C89.9395 128.745 89.7081 128.693 89.5026 128.593L47.176 130.311C46.9356 130.194 46.7414 130.017 46.6187 129.803C46.496 129.588 46.4504 129.347 46.4879 129.11C46.5253 128.872 46.6442 128.65 46.8289 128.473C47.0136 128.295 47.2556 128.17 47.5234 128.113L62.8466 124.882C63.0857 124.832 63.336 124.838 63.5714 124.9L102.92 124.859C103.2 124.934 103.445 125.084 103.62 125.289C103.795 125.493 103.89 125.741 103.891 125.995C103.892 126.25 103.799 126.498 103.626 126.703C103.453 126.909 103.209 127.061 102.929 127.137L90.5842 128.691C90.4517 128.727 90.3137 128.745 90.1748 128.745Z" fill="#2F2E41"/>
<path d="M85.7196 126.785C86.4522 127.196 87.2795 127.461 88.1431 127.564C89.0068 127.667 89.8858 127.603 90.7183 127.379C91.5508 127.154 92.3165 126.774 92.9615 126.264C93.6065 125.755 94.115 125.129 94.4513 124.43L139.253 127.488L137.087 117.844L90.8774 117.462C89.489 117.049 87.9744 117.092 86.6206 117.585C85.2668 118.077 84.1679 118.984 83.5322 120.133C82.8964 121.282 82.7679 122.594 83.1711 123.82C83.5742 125.046 84.481 126.101 85.7196 126.785Z" fill="#A0616A"/>
<path d="M112.181 63.9817C112.181 63.9817 118.949 59.2776 127.071 67.745C132.547 73.4554 143.113 107.976 143.989 122.281C144.044 123.186 143.884 124.091 143.517 124.94C143.151 125.789 142.587 126.563 141.861 127.213C141.134 127.864 140.261 128.377 139.296 128.721C138.33 129.064 137.294 129.231 136.251 129.21L112.371 128.849L109.701 115.807L128.554 116.001L112.181 63.9817Z" fill="#6C63FF"/>
<path d="M85.3592 131.903C84.54 131.902 83.7291 131.76 82.9742 131.483L34.6681 132.441C33.3933 131.979 32.335 131.157 31.6644 130.108C30.9938 129.058 30.7501 127.843 30.9727 126.659L29.1777 89.7993C29.4158 88.4827 30.2133 87.2916 31.4129 86.461C32.6125 85.6304 34.127 85.2208 35.6572 85.3131L80.5039 86.9292C81.3647 86.9782 82.2041 87.1839 82.9676 87.533C83.731 87.882 84.4015 88.3666 84.9356 88.9552C85.4696 89.5439 85.8553 90.2235 86.0676 90.95C86.2798 91.6765 86.314 92.4337 86.1678 93.1724L91.4221 127.458C91.175 128.701 90.4316 129.827 89.3226 130.64C88.2136 131.453 86.8102 131.9 85.3592 131.903Z" fill="#3F3D56"/>
<path d="M48.6783 22.1642L28.5186 22.1148C27.9782 22.1143 27.4596 22.2999 27.0765 22.631C26.6933 22.9621 26.4769 23.4117 26.4747 23.8812L26.4016 47.075C26.4005 47.544 26.6137 47.9943 26.9944 48.3268C27.3751 48.6594 27.8921 48.847 28.4319 48.8485L39.615 48.8767L48.5944 48.8979C49.1347 48.8987 49.6532 48.7131 50.036 48.3819C50.4187 48.0506 50.6344 47.6009 50.6356 47.1315L50.641 45.7602L50.7114 23.94C50.7125 23.4704 50.499 23.0196 50.1178 22.6866C49.7366 22.3537 49.2189 22.1658 48.6783 22.1642Z" fill="#E6E6E6"/>
<path d="M47.2571 23.5496L29.9317 23.5073C29.4257 23.5067 28.9402 23.6804 28.5814 23.9904C28.2227 24.3003 28.02 24.7212 28.0177 25.1608L27.969 40.0729C27.9656 42.0312 28.8563 43.9108 30.4458 45.2993C32.0353 46.6878 34.1937 47.4719 36.4476 47.4796L39.7395 47.4866L47.1813 47.5054C47.6874 47.5064 48.1732 47.3328 48.532 47.0228C48.8909 46.7127 49.0934 46.2916 49.0952 45.8519L49.1006 44.3513L49.1602 25.2125C49.1613 24.7728 48.9615 24.3507 48.6047 24.0389C48.2478 23.7271 47.7632 23.5511 47.2571 23.5496Z" fill="white"/>
<path d="M45.3109 33.7388H31.8025C31.696 33.7388 31.5906 33.757 31.4922 33.7924C31.3938 33.8278 31.3045 33.8797 31.2292 33.9451C31.1539 34.0105 31.0942 34.0882 31.0534 34.1736C31.0127 34.2591 30.9917 34.3507 30.9917 34.4432C30.9917 34.5357 31.0127 34.6273 31.0534 34.7128C31.0942 34.7983 31.1539 34.8759 31.2292 34.9413C31.3045 35.0067 31.3938 35.0586 31.4922 35.094C31.5906 35.1294 31.696 35.1477 31.8025 35.1477H45.3109C45.5259 35.1477 45.7322 35.0734 45.8842 34.9413C46.0363 34.8092 46.1217 34.63 46.1217 34.4432C46.1217 34.2564 46.0363 34.0772 45.8842 33.9451C45.7322 33.813 45.5259 33.7388 45.3109 33.7388Z" fill="#6C63FF"/>
<path d="M34.7722 29.8767H31.8025C31.5874 29.8767 31.3812 29.9509 31.2292 30.083C31.0771 30.2151 30.9917 30.3943 30.9917 30.5811C30.9917 30.768 31.0771 30.9471 31.2292 31.0792C31.3812 31.2113 31.5874 31.2856 31.8025 31.2856H34.7722C34.9872 31.2856 35.1934 31.2113 35.3455 31.0792C35.4975 30.9471 35.5829 30.768 35.5829 30.5811C35.5829 30.3943 35.4975 30.2151 35.3455 30.083C35.1934 29.9509 34.9872 29.8767 34.7722 29.8767Z" fill="#6C63FF"/>
<path d="M45.3109 39.9318H31.8025C31.5874 39.9318 31.3812 40.006 31.2292 40.1381C31.0771 40.2702 30.9917 40.4494 30.9917 40.6362C30.9917 40.8231 31.0771 41.0022 31.2292 41.1344C31.3812 41.2665 31.5874 41.3407 31.8025 41.3407H45.3109C45.5259 41.3407 45.7322 41.2665 45.8842 41.1344C46.0363 41.0022 46.1217 40.8231 46.1217 40.6362C46.1217 40.4494 46.0363 40.2702 45.8842 40.1381C45.7322 40.006 45.5259 39.9318 45.3109 39.9318Z" fill="#6C63FF"/>
<path d="M45.3108 36.8365H31.8023C31.5877 36.8365 31.3818 36.9106 31.23 37.0424C31.0782 37.1743 30.9929 37.3532 30.9929 37.5397C30.9929 37.7262 31.0782 37.9051 31.23 38.037C31.3818 38.1689 31.5877 38.243 31.8023 38.243H45.3108C45.5254 38.243 45.7313 38.1689 45.8831 38.037C46.0349 37.9051 46.1202 37.7262 46.1202 37.5397C46.1202 37.3532 46.0349 37.1743 45.8831 37.0424C45.7313 36.9106 45.5254 36.8365 45.3108 36.8365Z" fill="#6C63FF"/>
<path d="M42.6859 32.3676C41.7373 32.3676 40.8101 32.1232 40.0214 31.6653C39.2327 31.2075 38.618 30.5567 38.255 29.7952C37.892 29.0338 37.797 28.196 37.982 27.3877C38.1671 26.5793 38.6239 25.8368 39.2946 25.2541C39.9653 24.6713 40.8199 24.2744 41.7502 24.1136C42.6806 23.9529 43.6449 24.0354 44.5213 24.3508C45.3976 24.6662 46.1467 25.2003 46.6736 25.8855C47.2006 26.5708 47.4819 27.3764 47.4819 28.2006C47.4805 29.3054 46.9747 30.3645 46.0756 31.1457C45.1765 31.9269 43.9574 32.3664 42.6859 32.3676ZM42.6859 24.3232C41.8033 24.3232 40.9404 24.5506 40.2065 24.9766C39.4727 25.4027 38.9007 26.0082 38.5629 26.7168C38.2251 27.4253 38.1367 28.2049 38.3089 28.957C38.4811 29.7092 38.9061 30.4001 39.5303 30.9424C40.1544 31.4846 40.9496 31.8539 41.8152 32.0035C42.6809 32.1532 43.5782 32.0764 44.3937 31.7829C45.2091 31.4894 45.9061 30.9924 46.3965 30.3548C46.8869 29.7171 47.1486 28.9675 47.1486 28.2006C47.1473 27.1726 46.6767 26.187 45.84 25.4601C45.0034 24.7332 43.8691 24.3243 42.6859 24.3232Z" fill="#6C63FF"/>
<path d="M44.7 29.8146C44.3687 28.3286 43.6787 26.9204 42.6756 25.683C42.6529 25.6509 42.6212 25.6244 42.5834 25.606C42.5456 25.5876 42.503 25.5779 42.4597 25.5779C42.4164 25.5779 42.3738 25.5876 42.336 25.606C42.2983 25.6244 42.2665 25.6509 42.2439 25.683C41.3702 27.0107 40.8117 28.4772 40.6015 29.9956C40.5627 30.2725 41.0629 30.27 41.1015 29.9956C41.1717 29.5035 41.2812 29.0163 41.4292 28.5374C41.4483 28.5341 41.467 28.5291 41.485 28.5225C42.1498 28.2325 42.9008 28.1263 43.6371 28.218C43.6435 28.2188 43.6497 28.2176 43.6561 28.2182C43.8993 28.7738 44.0872 29.3466 44.2179 29.9301C44.2789 30.2043 44.7608 30.0882 44.7 29.8146ZM41.6091 28.0047C41.8386 27.3861 42.1307 26.7865 42.4821 26.2128C42.854 26.7065 43.1769 27.2268 43.4474 27.768C42.822 27.7271 42.194 27.808 41.6091 28.0047Z" fill="#6C63FF"/>
</svg>
